<svg xmlns="http://www.w3.org/2000/svg" id="_레이어_2" viewBox="0 0 467.7 210.23"><defs><style>.cls-1{fill:#3c4e5f}</style></defs><g id="Layer_1"><path d="M45.3 120.36c-3.22-.96-5.58-1.2-11.99-1.2h-8.53c-6.17 0-8.07-.39-9.48-1.92-.95-.9-1.42-2.5-1.42-4.51 0-3.4 1.3-5.65 3.79-6.28 1.41-.34 2.84-.42 7-.42h21.59l5-10.56H20.51c-8.77 0-13.04 1.29-16.24 4.93C1.42 103.52 0 107.79 0 112.39c0 7.73 4.14 14.58 10.08 16.45 2.83.97 5.57 1.21 12.8 1.21h6.87c6.41 0 7.71.24 9.14 1.29 1.17 1.12 1.77 2.74 1.77 5 0 4.03-1.42 5.7-5.09 6.04-2.03.24-3.57.24-7 .24H5.7L.71 153.17h31.53c11.03 0 14.22-.81 17.32-4.36 2.96-3.21 4.62-8.29 4.62-13.53 0-7.58-3.33-13.14-8.89-14.92ZM353.74 120.36c-3.21-.96-5.59-1.2-11.99-1.2h-8.54c-6.13 0-8.06-.39-9.47-1.92-.93-.9-1.41-2.5-1.41-4.51 0-3.4 1.3-5.65 3.79-6.28 1.41-.34 2.86-.42 7-.42h21.6l5-10.56h-30.74c-8.78 0-13.05 1.29-16.24 4.93-2.89 3.12-4.27 7.39-4.27 11.99 0 7.73 4.12 14.58 10.08 16.45 2.82.97 5.56 1.21 12.8 1.21h6.86c6.4 0 7.72.24 9.14 1.29 1.17 1.12 1.78 2.74 1.78 5 0 4.03-1.42 5.7-5.11 6.04-2.01.24-3.55.24-6.98.24h-22.88l-4.99 10.55h31.54c11.04 0 14.22-.81 17.32-4.36 2.95-3.21 4.62-8.29 4.62-13.53 0-7.58-3.32-13.14-8.89-14.92ZM203.65 136.96l-16.36-41.5h-14.58l24.18 57.71h12.68l25.98-57.71h-14.22zM97.05 130.53c9.48 0 13.87-1.06 17.3-4.27 3.33-3.3 5.22-8.15 5.22-13.47 0-7.97-4.26-14.4-10.79-16.17-3.66-1.06-5.2-1.14-14.1-1.14H82.57c-13.34 0-19.06 8.78-19.06 18.2v16.52c0 6.05.22 8.3 1.29 11.52a14.6 14.6 0 0 0 3.08 5.66c3.09 3.69 7.36 5.32 14.11 5.71 1.9 0 3.92.09 6.17.09h24.42l4.99-10.56H89.58c-6.77 0-9.24-.81-11.03-3.3-1.18-1.87-1.54-3.79-1.54-7.49v-1.29h20.04Zm-20.04-16.86c0-4.51 1.91-7.65 7.33-7.65h11.41c7.36 0 10.07 1.87 10.07 6.85 0 3.07-1.41 5.57-3.79 6.44-1.54.57-2.61.81-6.28.81H77.02v-6.45ZM264.32 118.11c-9.5 0-13.86 1.05-17.32 4.27-3.31 3.3-5.2 8.15-5.2 13.47 0 7.97 4.27 14.4 10.8 16.18 3.67 1.05 5.2 1.14 14.1 1.14h12.12c13.3 0 19.06-8.78 19.06-18.15v-16.57c0-6.05-.24-8.31-1.3-11.52-.6-2.11-1.65-4.03-3.1-5.65-3.06-3.7-7.34-5.33-14.1-5.72-1.9 0-3.91-.09-6.17-.09h-28.32l5 10.55h21.91c6.73 0 9.23.8 11.01 3.31 1.17 1.87 1.56 3.78 1.56 7.49v1.29h-20.06Zm20.05 16.91c0 4.45-1.93 7.59-7.33 7.59h-11.43c-7.34 0-10.08-1.87-10.08-6.85 0-3.07 1.44-5.57 3.79-6.38 1.56-.62 2.61-.86 6.29-.86h18.76zM144.52 138.67l.03-43.2h-13.41v42.38c0 9.99 7.37 15.32 15.04 15.32h25.81l5.27-11.14h-29.32c-1.78 0-3.43-.87-3.43-3.36Z" class="cls-1"/><path d="M456.62 49.56c-9.51 11.99-21.46 18.6-30.89 24-6.73 3.79-12.84 7.59-17.44 12.32V66.63c3.48-2.32 7.13-4.34 10.81-6.44 8.93-5.07 19.56-10.96 27.47-21.34l-10.81-11.54c-8.13 8.54-17.87 13.7-25.94 18.54-.52.32-1.04.64-1.52.9V29.41c5.8-3.62 12.29-7.34 17.47-12.8L410.22.01c-3.82 1.13-13.89 5.56-16.71 11.68-2.53 5.41 10.59 4.66 14.02 7.48 1.29 1 .6 2.35.24 2.76-4.39 5.71-31.07 5.39-60.74 39.63l61.27 64.3v-9.59c0-12.5 12.21-19.57 20.87-25.3 12.65-8.3 26.95-14.41 38.54-29.5l-11.08-11.9Z" style="fill:#95c11e"/><path d="m332.8 210.23-3.46-9.62h-13.25l-3.39 9.62h-5.97l12.97-34.79h6.16l12.96 34.79zm-4.95-14.5-3.25-9.43c-.24-.63-.57-1.63-.99-2.98-.42-1.36-.71-2.36-.87-2.99-.43 1.95-1.05 4.07-1.87 6.37l-3.12 9.03zM351.64 210.23v-34.65h5.67v34.65z" class="cls-1"/></g></svg>